<?xml version="1.0" encoding="UTF-8" standalone="no"?>
<!DOCTYPE svg PUBLIC "-//W3C//DTD SVG 1.1//EN" "http://www.w3.org/Graphics/SVG/1.1/DTD/svg11.dtd">
<svg width="100%" height="100%" viewBox="0 0 1074 790" version="1.1" xmlns="http://www.w3.org/2000/svg" xmlnsXlink="http://www.w3.org/1999/xlink" xmlSpace="preserve" xmlnsSerif="http://www.serif.com/" style="fill-rule:evenodd;clip-rule:evenodd;stroke-linejoin:round;stroke-miterlimit:2;">
    <g transform="matrix(1.33333,0,0,1.33333,0,0)">
        <g id="Plan-de-travail1" serifId="Plan de travail1" transform="matrix(0.324683,0,0,0.168727,0,0)">
            <rect x="0" y="0" width="2480.32" height="3507.87" style="fill:none;"/>
            <g transform="matrix(4.21531,0,0,5.28145,-4123.28,222.865)">
                <g transform="matrix(458.333,0,0,703.934,966.509,584.265)">
                    <path d="M0.471,-0.255C0.471,-0.271 0.468,-0.286 0.462,-0.301C0.456,-0.315 0.448,-0.327 0.437,-0.338C0.426,-0.349 0.414,-0.357 0.4,-0.364C0.386,-0.37 0.371,-0.373 0.354,-0.373C0.338,-0.373 0.323,-0.37 0.309,-0.364C0.295,-0.358 0.283,-0.35 0.273,-0.339C0.262,-0.328 0.254,-0.316 0.248,-0.302C0.241,-0.287 0.238,-0.272 0.238,-0.256C0.238,-0.24 0.241,-0.225 0.247,-0.211C0.253,-0.197 0.261,-0.185 0.272,-0.175C0.283,-0.164 0.295,-0.156 0.31,-0.15C0.324,-0.143 0.339,-0.14 0.355,-0.14C0.371,-0.14 0.386,-0.143 0.4,-0.149C0.414,-0.155 0.426,-0.163 0.437,-0.174C0.447,-0.185 0.455,-0.197 0.462,-0.211C0.468,-0.225 0.471,-0.24 0.471,-0.255ZM0.243,-0.83L0.243,-0.462C0.286,-0.507 0.339,-0.529 0.403,-0.529C0.441,-0.529 0.476,-0.522 0.508,-0.508C0.539,-0.493 0.566,-0.474 0.589,-0.45C0.611,-0.425 0.628,-0.397 0.641,-0.364C0.654,-0.331 0.66,-0.295 0.66,-0.258C0.66,-0.22 0.654,-0.184 0.641,-0.151C0.627,-0.118 0.609,-0.089 0.586,-0.064C0.563,-0.039 0.535,-0.02 0.504,-0.006C0.472,0.009 0.438,0.016 0.401,0.016C0.334,0.016 0.282,-0.008 0.243,-0.057L0.243,0L0.062,0L0.062,-0.83L0.243,-0.83Z" style="fill-rule:nonzero;"/>
                </g>
                <g transform="matrix(458.333,0,0,703.934,1273.39,584.265)">
                    <path d="M0.243,-0.513L0.243,-0.224C0.243,-0.161 0.274,-0.129 0.335,-0.129C0.396,-0.129 0.427,-0.161 0.427,-0.224L0.427,-0.513L0.608,-0.513L0.608,-0.189C0.608,-0.12 0.585,-0.068 0.54,-0.033C0.494,0.002 0.426,0.019 0.335,0.019C0.244,0.019 0.176,0.002 0.131,-0.033C0.085,-0.068 0.062,-0.12 0.062,-0.189L0.062,-0.513L0.243,-0.513Z" style="fill-rule:nonzero;"/>
                </g>
            </g>
            <g transform="matrix(3.34141,0,0,6.42988,-2918.16,-3643.27)">
                <circle cx="1338" cy="612" r="41"/>
            </g>
            <g transform="matrix(3.64984,0,0,7.02341,-3044.21,-3325.14)">
                <circle cx="1338" cy="612" r="41"/>
            </g>
            <g transform="matrix(3.77836,0,0,7.27071,-2806.22,-3859.76)">
                <circle cx="1338" cy="612" r="41"/>
            </g>
        </g>
    </g>
</svg>
